<?xml version="1.0" encoding="UTF-8" standalone="no"?>
<!DOCTYPE svg PUBLIC "-//W3C//DTD SVG 1.1//EN" "http://www.w3.org/Graphics/SVG/1.1/DTD/svg11.dtd">
<svg width="100%" height="100%" viewBox="0 0 505 488" version="1.1" xmlns="http://www.w3.org/2000/svg" xmlns:xlink="http://www.w3.org/1999/xlink" xml:space="preserve" xmlns:serif="http://www.serif.com/" style="fill-rule:evenodd;clip-rule:evenodd;stroke-linejoin:round;stroke-miterlimit:2;">
    <g id="Artboard1" transform="matrix(1,0,0,1,-26.2608,-37.3868)">
        <rect x="26.261" y="37.387" width="504.015" height="487.72" style="fill:none;"/>
        <g id="Layer-1" serif:id="Layer 1" transform="matrix(4.16667,0,0,4.16667,0.260809,0.38682)">
            <g transform="matrix(1,0,0,1,50.773,48.7863)">
                <path d="M0,27.564C-0.161,27.277 -0.524,27.174 -0.812,27.335C-0.899,27.384 -0.962,27.455 -1.013,27.533L-1.014,27.532L-2.476,30.066L35.134,30.066L26.071,14.368L16.33,-2.502L15.449,-0.985L11.402,5.981L9.528,9.207C9.405,9.387 9.382,9.626 9.496,9.829C9.657,10.113 10.018,10.214 10.302,10.053C10.387,10.006 10.448,9.937 10.498,9.86L12.418,6.562L16.124,0.195L16.328,-0.155L24.043,13.209L33.097,28.889L-0.44,28.889L-0.027,28.17C0.087,27.992 0.111,27.762 0,27.564" style="fill:rgb(35,31,32);fill-rule:nonzero;"/>
            </g>
            <g transform="matrix(1,0,0,1,20.2354,81.4463)">
                <path d="M0,8.57L0.741,9.853L3.372,14.406L10.114,2.728L14.215,-4.375C14.304,-4.546 14.325,-4.749 14.224,-4.93C14.063,-5.217 13.699,-5.32 13.412,-5.159C13.325,-5.11 13.261,-5.039 13.21,-4.961L13.2,-4.968L8.086,3.887L3.372,12.053L1.417,8.671L1.359,8.57L2.079,7.323L9.086,-4.818C9.211,-4.999 9.235,-5.241 9.121,-5.447C8.959,-5.734 8.596,-5.836 8.308,-5.675C8.223,-5.627 8.162,-5.559 8.111,-5.483L0.05,8.482L0,8.57Z" style="fill:rgb(35,31,32);fill-rule:nonzero;"/>
            </g>
            <g transform="matrix(1,0,0,1,55.6964,73.3537)">
                <path d="M0,28.812C0.329,28.755 0.652,28.642 0.97,28.467C1.641,28.08 2.123,27.453 2.326,26.703C2.531,25.951 2.429,25.166 2.041,24.499C1.583,23.694 0.755,23.154 -0.164,23.054C-0.271,23.041 -0.753,23.047 -0.717,23.049L-27.06,23.049L-17.364,6.256L-15.174,2.462C-15.058,2.283 -15.034,2.051 -15.145,1.851C-15.306,1.564 -15.67,1.461 -15.958,1.623C-16.044,1.671 -16.108,1.742 -16.159,1.82L-16.161,1.819L-19.392,7.416L-29.098,24.226L-0.672,24.224C-0.635,24.222 -0.531,24.22 -0.435,24.22L-0.299,24.222C0.254,24.282 0.746,24.604 1.021,25.086C1.251,25.483 1.312,25.947 1.19,26.395C1.069,26.842 0.782,27.217 0.394,27.443C0.202,27.547 0.003,27.618 -0.143,27.645L-32.089,27.677C-32.703,27.677 -33.277,27.347 -33.584,26.816L-36.704,21.416L-38.484,18.333L-38.95,17.527C-39.257,16.993 -39.258,16.33 -38.952,15.798L-30.377,0.944C-30.269,0.766 -30.245,0.542 -30.354,0.347C-30.515,0.06 -30.878,-0.042 -31.166,0.119C-31.253,0.167 -31.316,0.238 -31.367,0.316L-31.371,0.313L-39.97,15.21C-40.228,15.657 -40.356,16.159 -40.356,16.66L-40.356,16.662C-40.356,17.164 -40.227,17.666 -39.969,18.114L-39.505,18.916L-37.379,22.598L-34.603,27.406C-34.085,28.299 -33.122,28.854 -32.09,28.854L-0.529,28.854L0,28.812Z" style="fill:rgb(35,31,32);fill-rule:nonzero;"/>
            </g>
            <g transform="matrix(1,0,0,1,46.4298,52.8315)">
                <path d="M0,-5.844C0.212,-6.26 0.321,-6.705 0.321,-7.169C0.321,-8.773 -0.984,-10.078 -2.588,-10.078C-3.541,-10.078 -4.434,-9.61 -4.968,-8.838L-5.035,-8.74C-5.093,-8.648 -5.148,-8.552 -5.18,-8.484L-11.939,3.225C-12.056,3.404 -12.083,3.635 -11.973,3.835C-11.815,4.126 -11.45,4.234 -11.159,4.075C-11.076,4.031 -11.017,3.964 -10.966,3.891L-4.143,-7.931C-4.112,-7.993 -4.079,-8.052 -4.009,-8.157C-3.687,-8.623 -3.155,-8.902 -2.588,-8.902C-1.633,-8.902 -0.855,-8.124 -0.855,-7.169C-0.855,-6.893 -0.92,-6.628 -1.043,-6.387C-1.073,-6.332 -1.101,-6.281 -1.146,-6.208L-6.589,3.22C-6.708,3.4 -6.735,3.633 -6.625,3.835C-6.466,4.126 -6.102,4.234 -5.811,4.075C-5.728,4.031 -5.669,3.964 -5.619,3.892L-0.142,-5.597C-0.092,-5.675 -0.048,-5.753 0,-5.844" style="fill:rgb(35,31,32);fill-rule:nonzero;"/>
            </g>
            <g transform="matrix(1,0,0,1,47.2198,51.1791)">
                <path d="M0,-14.82L6.26,-25.663L13.017,-37.368C13.275,-37.813 13.718,-38.117 14.254,-38.208C14.331,-38.223 14.422,-38.232 14.514,-38.232L25.245,-38.234C25.858,-38.234 26.43,-37.904 26.736,-37.374L29.01,-33.434L60.548,21.21C60.757,21.68 60.642,22.04 60.351,22.544C59.899,23.337 58.806,23.644 57.989,23.186C57.85,23.104 57.719,23.002 57.637,22.919L57.399,22.638L27.026,-29.965L24.416,-34.486L24.247,-34.78L17.505,-34.779L23.673,-24.1L33.555,-6.99L33.715,-6.605C33.845,-6.152 33.787,-5.676 33.552,-5.264C33.094,-4.467 31.979,-4.172 31.19,-4.622C31.042,-4.709 30.915,-4.807 30.844,-4.878L21.701,-20.652L14.515,-33.049L8.227,-22.222L2.767,-12.821C2.443,-12.505 2.005,-12.324 1.555,-12.324C0.599,-12.324 -0.178,-13.102 -0.178,-14.057C-0.178,-14.329 -0.115,-14.591 0,-14.82M-1.04,-15.368C-1.249,-14.956 -1.354,-14.515 -1.354,-14.057C-1.354,-12.453 -0.049,-11.149 1.555,-11.149C2.348,-11.149 3.117,-11.479 3.665,-12.056L8.897,-21.05L14.513,-30.702L21.012,-19.447L29.629,-4.526L29.953,-4.113C30.139,-3.917 30.356,-3.746 30.602,-3.603C31.94,-2.836 33.803,-3.34 34.572,-4.68C34.967,-5.369 35.064,-6.168 34.826,-6.987L34.597,-7.528L24.348,-25.28L19.543,-33.603L23.566,-33.604L26.351,-28.784L56.434,23.302L56.755,23.697C56.948,23.898 57.165,24.068 57.405,24.207C57.85,24.457 58.349,24.59 58.849,24.59C59.89,24.59 60.857,24.03 61.372,23.129C61.739,22.49 62.057,21.703 61.594,20.676L29.686,-34.616L27.755,-37.962C27.24,-38.854 26.279,-39.409 25.247,-39.41L23.765,-39.41L14.514,-39.408C14.34,-39.408 14.172,-39.392 14.037,-39.363C13.177,-39.219 12.435,-38.707 11.999,-37.957L5.583,-26.845L-0.903,-15.611L-1.04,-15.368Z" style="fill:rgb(35,31,32);fill-rule:nonzero;"/>
            </g>
            <g transform="matrix(1,0,0,1,61.6597,59.1567)">
                <path d="M0,-22.304L-0.853,-20.826L-12.314,-0.975C-12.416,-0.791 -12.431,-0.565 -12.314,-0.374C-12.14,-0.09 -11.769,0 -11.484,-0.174C-11.41,-0.221 -11.359,-0.286 -11.313,-0.355L-0.177,-19.644L0,-19.951L1.155,-17.951L2.091,-16.33L1.904,-16.005L-3.48,-6.674L-5.515,-3.147C-5.637,-2.962 -5.662,-2.72 -5.545,-2.513C-5.378,-2.218 -5.004,-2.113 -4.709,-2.28C-4.62,-2.33 -4.555,-2.403 -4.502,-2.483L-4.501,-2.483L-2.438,-6.078L2.582,-14.819L3.449,-16.33L1.831,-19.133L0,-22.304Z" style="fill:rgb(35,31,32);fill-rule:nonzero;"/>
            </g>
            <g transform="matrix(1,0,0,1,117.117,46.5193)">
                <path d="M0,39.663C-1.353,37.307 -3.275,33.967 -3.665,33.33C-4.198,32.457 -5.073,31.976 -6.131,31.976C-7.17,31.976 -8.138,32.537 -8.655,33.439C-8.848,33.778 -8.953,34.144 -9.001,34.517C-9.065,35.018 -9.014,35.532 -8.811,36.016C-8.781,36.084 -8.747,36.154 -8.717,36.216C-8.644,36.362 -8.558,36.496 -8.5,36.569L-6.181,40.584L-72.226,40.584L-70.135,36.963L-52.895,36.964L-17.332,36.966C-16.303,36.966 -15.34,36.408 -14.817,35.511C-14.302,34.615 -14.302,33.504 -14.818,32.613L-16.045,30.488L-30.259,5.873C-30.318,5.739 -30.536,5.381 -30.593,5.3C-30.836,4.986 -31.131,4.73 -31.464,4.539C-32.802,3.767 -34.672,4.286 -35.416,5.584C-36.059,6.56 -35.792,7.768 -35.76,7.902L-26.038,24.774L-22.361,31.156L-26.543,31.156L-32.293,21.198L-50.967,-11.146L-52.947,-14.576C-53.463,-15.467 -54.424,-16.022 -55.458,-16.023C-56.49,-16.023 -57.454,-15.467 -57.972,-14.571L-58.971,-12.841L-73.107,11.643C-73.218,11.829 -73.234,12.066 -73.113,12.264C-72.939,12.548 -72.568,12.637 -72.284,12.463C-72.215,12.421 -72.17,12.359 -72.127,12.298L-58.295,-11.66L-56.954,-13.983C-56.645,-14.516 -56.072,-14.847 -55.458,-14.847C-54.844,-14.846 -54.271,-14.517 -53.965,-13.987L-51.643,-9.964L-34.32,20.039L-27.393,32.038L-27.224,32.333L-20.323,32.333L-24.021,25.928L-34.631,7.552C-34.678,7.28 -34.712,6.654 -34.415,6.2C-33.954,5.399 -32.85,5.097 -32.049,5.559C-31.849,5.674 -31.672,5.83 -31.545,5.99C-31.515,6.036 -31.375,6.259 -31.305,6.406L-18.071,29.33L-15.836,33.202C-15.529,33.73 -15.529,34.391 -15.836,34.922C-16.146,35.457 -16.721,35.789 -17.332,35.789L-54.952,35.787L-70.814,35.787L-74.264,41.761L-4.143,41.761L-7.516,35.928C-7.567,35.858 -7.619,35.781 -7.664,35.689L-7.725,35.56C-7.776,35.437 -7.813,35.31 -7.836,35.183C-7.905,34.788 -7.837,34.381 -7.634,34.023C-7.326,33.487 -6.749,33.152 -6.131,33.152C-5.684,33.152 -5.067,33.289 -4.669,33.943C-4.379,34.418 -3.177,36.5 -2.022,38.506C-0.826,40.585 0.318,42.582 0.341,42.62C0.647,43.158 0.647,43.82 0.34,44.35L-5.021,53.646C-5.33,54.179 -5.903,54.51 -6.518,54.51L-22.204,54.512L-52.673,54.516C-52.703,54.512 -53.406,54.393 -53.803,53.642C-54.034,53.24 -54.095,52.774 -53.974,52.328C-53.853,51.878 -53.564,51.504 -53.167,51.274C-52.958,51.156 -52.73,51.083 -52.484,51.057C-52.449,51.054 -52.382,51.053 -52.315,51.053C-52.253,51.053 -52.191,51.054 -52.089,51.06L-28.245,51.058L-7.514,51.056L-4.143,45.215L-77.257,45.215C-77.872,45.215 -78.443,44.884 -78.75,44.35C-79.058,43.817 -79.059,43.156 -78.752,42.623L-71.075,29.323L-71.076,29.323C-70.95,29.142 -70.926,28.899 -71.041,28.694C-71.045,28.686 -71.054,28.682 -71.059,28.674C-71.227,28.405 -71.574,28.309 -71.853,28.466C-71.936,28.512 -71.995,28.579 -72.044,28.652L-72.547,29.524L-79.771,42.036C-80.287,42.932 -80.286,44.044 -79.77,44.938C-79.253,45.835 -78.291,46.391 -77.257,46.391L-6.18,46.391L-8.193,49.88L-30.297,49.885L-52.004,49.89C-52.102,49.876 -52.524,49.876 -52.613,49.888C-53.016,49.93 -53.398,50.053 -53.751,50.254C-54.423,50.641 -54.906,51.269 -55.109,52.02C-55.313,52.77 -55.21,53.555 -54.833,54.21C-54.156,55.492 -52.888,55.674 -52.756,55.686L-6.518,55.686C-5.483,55.686 -4.52,55.131 -4.002,54.234L1.358,44.939C1.616,44.495 1.746,43.994 1.747,43.492L1.747,43.491C1.747,42.989 1.619,42.486 1.361,42.036C1.299,41.926 0.731,40.935 0,39.663" style="fill:rgb(35,31,32);fill-rule:nonzero;"/>
            </g>
            <g transform="matrix(1,0,0,1,118.864,55.3009)">
                <path d="M0,13.772L-15.569,-12.929C-15.612,-13.011 -15.659,-13.088 -15.714,-13.176C-15.971,-13.569 -16.307,-13.887 -16.712,-14.119C-18.114,-14.92 -19.908,-14.432 -20.711,-13.029C-21.187,-12.196 -21.224,-11.182 -20.815,-10.329L-20.763,-10.221C-20.713,-10.124 -20.655,-10.028 -20.612,-9.966L0,25.385L1.73,28.353C1.785,28.428 1.851,28.497 1.938,28.541C2.237,28.692 2.601,28.572 2.751,28.274C2.855,28.068 2.821,27.835 2.697,27.659L0,23.033L-19.609,-10.597C-19.649,-10.655 -19.684,-10.713 -19.74,-10.826C-19.987,-11.342 -19.966,-11.946 -19.682,-12.441C-19.204,-13.277 -18.136,-13.568 -17.3,-13.09C-17.06,-12.953 -16.859,-12.764 -16.711,-12.535C-16.677,-12.482 -16.646,-12.432 -16.606,-12.355L0,16.125L3.202,21.618C3.257,21.691 3.32,21.757 3.407,21.801C3.705,21.952 4.068,21.833 4.22,21.535C4.326,21.324 4.291,21.084 4.16,20.906L0,13.772Z" style="fill:rgb(35,31,32);fill-rule:nonzero;"/>
            </g>
            <g transform="matrix(1,0,0,1,123.611,21.2193)">
                <path d="M0,46.671L-4.747,38.526L-26.23,1.673C-26.542,1.137 -26.545,0.47 -26.238,-0.066C-26.236,-0.071 -26.232,-0.074 -26.229,-0.078C-26.179,-0.15 -26.135,-0.229 -26.12,-0.323C-26.068,-0.655 -26.296,-0.966 -26.627,-1.017C-26.826,-1.048 -27.002,-0.962 -27.133,-0.829C-27.175,-0.768 -27.229,-0.72 -27.267,-0.655C-27.782,0.248 -27.778,1.368 -27.254,2.269L-4.747,40.879L-0.954,47.386C-0.9,47.458 -0.838,47.525 -0.752,47.568C-0.454,47.719 -0.09,47.6 0.061,47.301C0.167,47.09 0.132,46.849 0,46.671" style="fill:rgb(35,31,32);fill-rule:nonzero;"/>
            </g>
            <g transform="matrix(1,0,0,1,118.864,30.6016)">
                <path d="M0,22.236L2.75,26.954C2.802,27.022 2.86,27.086 2.942,27.127C3.242,27.278 3.607,27.158 3.759,26.859C3.865,26.649 3.83,26.411 3.701,26.233L0,19.883L-14.264,-4.584L-14.265,-4.584C-14.3,-4.672 -14.349,-4.756 -14.425,-4.822C-14.679,-5.042 -15.063,-5.014 -15.282,-4.761C-15.435,-4.585 -15.458,-4.349 -15.38,-4.146L0,22.236Z" style="fill:rgb(35,31,32);fill-rule:nonzero;"/>
            </g>
            <g transform="matrix(1,0,0,1,93.1095,15.1748)">
                <path d="M0,21.34L0.144,21.581C0.399,21.97 0.732,22.282 1.133,22.511C2.535,23.313 4.328,22.825 5.13,21.422C5.526,20.729 5.622,19.891 5.392,19.124L-5.356,0.544C-5.392,0.458 -5.438,0.376 -5.514,0.311C-5.768,0.091 -6.151,0.119 -6.371,0.373C-6.524,0.549 -6.548,0.787 -6.468,0.991L4.273,19.527C4.389,19.967 4.327,20.44 4.102,20.834C3.624,21.67 2.556,21.961 1.721,21.483C1.483,21.347 1.286,21.161 1.143,20.946L-11.952,-1.516L-11.955,-1.516C-11.99,-1.604 -12.039,-1.687 -12.115,-1.754C-12.369,-1.973 -12.753,-1.946 -12.973,-1.692C-13.124,-1.517 -13.147,-1.284 -13.07,-1.081L0,21.34Z" style="fill:rgb(35,31,32);fill-rule:nonzero;"/>
            </g>
            <g transform="matrix(1,0,0,1,85.6173,123.245)">
                <path d="M0,-8.31L-31.098,-8.178C-31.246,-8.193 -31.668,-8.181 -31.767,-8.172C-32.163,-8.117 -32.534,-7.988 -32.867,-7.791C-34.211,-7.007 -34.693,-5.113 -33.93,-3.813C-33.398,-2.763 -32.208,-2.393 -32.075,-2.354L-5.044,-2.444L-5.885,-0.972C-5.993,-0.78 -5.997,-0.538 -5.866,-0.342C-5.68,-0.066 -5.304,0.007 -5.026,-0.179C-4.957,-0.225 -4.914,-0.29 -4.872,-0.357L-2.997,-3.637L-31.816,-3.516C-32.078,-3.611 -32.643,-3.894 -32.891,-4.38C-33.361,-5.184 -33.073,-6.3 -32.269,-6.769C-32.067,-6.887 -31.843,-6.964 -31.64,-6.995C-31.585,-6.998 -31.319,-7.009 -31.156,-6.997L0.007,-7.125C0.622,-7.129 1.199,-6.799 1.511,-6.266C1.823,-5.727 1.826,-5.059 1.521,-4.525L0.633,-2.971C0.53,-2.78 0.525,-2.544 0.655,-2.352C0.842,-2.075 1.218,-2.002 1.494,-2.189C1.567,-2.238 1.615,-2.307 1.658,-2.377L2.55,-3.937C3.064,-4.836 3.059,-5.956 2.535,-6.863C2.009,-7.761 1.038,-8.317 0,-8.31" style="fill:rgb(35,31,32);fill-rule:nonzero;"/>
            </g>
            <g transform="matrix(1,0,0,1,82.2276,105.823)">
                <path d="M0,5.603L0.507,5.519C0.779,5.451 1.036,5.346 1.277,5.206C1.719,4.942 2.084,4.573 2.334,4.136C2.855,3.225 2.849,2.099 2.318,1.199C1.942,0.558 1.414,-0.112 0.284,-0.221L-55.723,0.001C-55.937,0.001 -56.145,0.107 -56.252,0.309C-56.408,0.6 -56.297,0.963 -56.005,1.119C-55.917,1.166 -55.823,1.181 -55.729,1.181L-55.729,1.186L0.229,0.959C0.743,1.012 1.001,1.293 1.297,1.799C1.764,2.59 1.485,3.7 0.677,4.185C0.535,4.266 0.381,4.33 0.267,4.36L-0.098,4.426L-50.805,4.641C-51.024,4.635 -51.239,4.745 -51.35,4.952C-51.505,5.243 -51.394,5.606 -51.102,5.761C-51.014,5.808 -50.92,5.824 -50.827,5.824L0,5.603Z" style="fill:rgb(35,31,32);fill-rule:nonzero;"/>
            </g>
            <g transform="matrix(1,0,0,1,44.942,120.406)">
                <path d="M0,-5.231L-0.587,-5.301L-7.087,-5.274C-7.304,-5.278 -7.517,-5.169 -7.626,-4.964C-7.782,-4.673 -7.671,-4.31 -7.379,-4.155C-7.292,-4.109 -7.199,-4.094 -7.107,-4.093L-0.638,-4.121L-0.221,-4.068C0.24,-3.956 0.627,-3.668 0.87,-3.255C1.287,-2.543 1.091,-1.576 0.486,-1.045L0.489,-1.043C0.322,-0.897 0.238,-0.669 0.298,-0.44C0.383,-0.121 0.711,0.07 1.031,-0.015C1.109,-0.036 1.171,-0.083 1.23,-0.13C2.27,-1.023 2.596,-2.652 1.891,-3.855C1.485,-4.545 0.836,-5.03 0,-5.231" style="fill:rgb(35,31,32);fill-rule:nonzero;"/>
            </g>
            <g transform="matrix(1,0,0,1,105.687,114.268)">
                <path d="M0,-5.253L-1.204,-7.315C-1.464,-7.763 -1.836,-8.126 -2.274,-8.378L-2.276,-8.378C-2.715,-8.63 -3.219,-8.77 -3.741,-8.77C-4.106,-8.77 -12.709,-8.761 -13.866,-8.727C-14.896,-8.697 -15.754,-8.172 -16.282,-7.248C-16.802,-6.339 -16.795,-5.213 -16.265,-4.309C-15.796,-3.515 -15.003,-2.996 -14.091,-2.885C-14.016,-2.876 -13.938,-2.871 -13.868,-2.867C-13.704,-2.857 -13.543,-2.865 -13.451,-2.88L-8.781,-2.9L-11.894,2.542C-12.003,2.732 -12.008,2.976 -11.876,3.171C-11.691,3.444 -11.321,3.517 -11.048,3.332C-10.965,3.276 -10.907,3.201 -10.863,3.119L-10.859,3.121L-6.734,-4.094L-13.52,-4.061C-13.606,-4.051 -13.7,-4.044 -13.803,-4.051L-13.945,-4.062C-14.491,-4.128 -14.965,-4.438 -15.244,-4.909C-15.56,-5.446 -15.563,-6.118 -15.254,-6.659C-15.03,-7.05 -14.603,-7.521 -13.832,-7.542C-12.691,-7.575 -3.828,-7.584 -3.74,-7.584C-3.117,-7.584 -2.538,-7.253 -2.229,-6.718L-1.063,-4.724L-1.058,-4.727C-0.962,-4.528 -0.764,-4.388 -0.528,-4.387C-0.198,-4.385 0.07,-4.65 0.071,-4.981C0.072,-5.08 0.042,-5.17 -0.001,-5.253L0,-5.253Z" style="fill:rgb(35,31,32);fill-rule:nonzero;"/>
            </g>
            <g transform="matrix(1,0,0,1,14.0528,76.8504)">
                <path d="M0,-3.171C-0.164,-3.464 -0.534,-3.568 -0.827,-3.404C-0.901,-3.362 -0.951,-3.301 -0.998,-3.236L-2.503,-0.655L-2.502,-0.655C-2.637,-0.477 -2.672,-0.233 -2.564,-0.02C-2.414,0.278 -2.05,0.397 -1.752,0.247C-1.667,0.204 -1.606,0.139 -1.553,0.068L-0.031,-2.542C0.09,-2.726 0.115,-2.966 0,-3.171" style="fill:rgb(35,31,32);fill-rule:nonzero;"/>
            </g>
            <g transform="matrix(1,0,0,1,12.7037,31.9388)">
                <path d="M0,25.91C0.077,25.867 0.131,25.802 0.179,25.735L2.636,21.519L15.264,-0.143L11.662,-0.158C11.442,-0.164 11.225,-0.057 11.112,0.149C10.951,0.444 11.059,0.813 11.353,0.974C11.422,1.012 11.496,1.019 11.569,1.026L13.207,1.033L2.636,19.166L-0.802,25.064C-0.915,25.245 -0.939,25.477 -0.827,25.677C-0.664,25.97 -0.293,26.074 0,25.91" style="fill:rgb(35,31,32);fill-rule:nonzero;"/>
            </g>
            <g transform="matrix(1,0,0,1,34.2286,38.4305)">
                <path d="M0,-14.986C0.089,-14.937 0.184,-14.92 0.279,-14.919L0.279,-14.918L8.021,-14.885L-2.858,3.922C-3.089,4.689 -2.994,5.527 -2.598,6.22C-1.795,7.623 -0.002,8.112 1.4,7.31C1.801,7.081 2.133,6.768 2.389,6.379L2.533,6.138L15.621,-16.314C16.06,-17.07 16.136,-17.975 15.832,-18.799C15.789,-18.932 15.72,-19.087 15.633,-19.238L13.617,-22.766C13.515,-22.963 13.313,-23.098 13.076,-23.094C12.745,-23.087 12.481,-22.813 12.487,-22.481C12.489,-22.386 12.521,-22.301 12.563,-22.222L14.604,-18.651C14.65,-18.57 14.688,-18.486 14.713,-18.411C14.902,-17.897 14.857,-17.358 14.597,-16.91L1.39,5.744C1.247,5.959 1.049,6.145 0.812,6.282C-0.023,6.759 -1.091,6.468 -1.569,5.632C-1.794,5.239 -1.855,4.765 -1.741,4.325L10.072,-16.06L0.31,-16.118C0.089,-16.124 -0.127,-16.018 -0.241,-15.811C-0.402,-15.516 -0.294,-15.147 0,-14.986" style="fill:rgb(35,31,32);fill-rule:nonzero;"/>
            </g>
            <g transform="matrix(1,0,0,1,18.5977,81.5884)">
                <path d="M0,-5.868L0.835,-7.3C0.944,-7.48 0.968,-7.707 0.857,-7.904C0.693,-8.197 0.323,-8.302 0.03,-8.138C0.017,-8.13 0.012,-8.116 0,-8.107C-0.061,-8.066 -0.111,-8.016 -0.151,-7.959L-3.258,-2.632L-5.603,1.391C-5.732,1.568 -5.768,1.806 -5.662,2.016C-5.511,2.314 -5.147,2.434 -4.849,2.282C-4.763,2.239 -4.699,2.172 -4.646,2.1L-3.258,-0.281L0,-5.868Z" style="fill:rgb(35,31,32);fill-rule:nonzero;"/>
            </g>
            <g transform="matrix(1,0,0,1,28.4303,55.9262)">
                <path d="M0,-27.655C0.066,-27.619 0.138,-27.613 0.208,-27.605L2.569,-27.595C3.186,-27.592 3.759,-27.256 4.067,-26.719C4.374,-26.183 4.371,-25.516 4.06,-24.98L-10.558,0.095L-10.552,0.099C-10.682,0.282 -10.709,0.529 -10.595,0.739C-10.434,1.034 -10.065,1.143 -9.771,0.982C-9.706,0.947 -9.664,0.891 -9.62,0.838L5.083,-24.384C5.607,-25.285 5.612,-26.405 5.095,-27.308C4.578,-28.211 3.612,-28.774 2.575,-28.78L0.317,-28.789C0.094,-28.798 -0.126,-28.689 -0.241,-28.48C-0.402,-28.186 -0.294,-27.817 0,-27.655" style="fill:rgb(35,31,32);fill-rule:nonzero;"/>
            </g>
            <g transform="matrix(1,0,0,1,23.6187,48.8023)">
                <path d="M0,9.046L0.501,8.186L3.994,2.197C4.034,2.121 4.065,2.07 4.099,2.017C4.248,1.789 4.447,1.6 4.687,1.463C5.523,0.984 6.592,1.275 7.07,2.111C7.353,2.607 7.375,3.211 7.128,3.726C7.071,3.839 7.037,3.898 6.998,3.956L5.104,7.204L5.131,7.223C5.001,7.406 4.974,7.652 5.088,7.863C5.249,8.158 5.618,8.267 5.913,8.106C5.946,8.088 5.963,8.055 5.991,8.031L8,4.587C8.043,4.525 8.1,4.428 8.151,4.332L8.203,4.224C8.612,3.371 8.575,2.356 8.098,1.523C7.296,0.12 5.502,-0.368 4.1,0.434C3.694,0.666 3.359,0.983 3.102,1.377C3.046,1.464 3,1.542 2.957,1.624L-0.87,8.186L-1.007,8.422C-1.117,8.608 -1.132,8.843 -1.012,9.04C-0.838,9.324 -0.467,9.414 -0.183,9.24C-0.103,9.191 -0.047,9.121 0,9.046" style="fill:rgb(35,31,32);fill-rule:nonzero;"/>
            </g>
            <g transform="matrix(1,0,0,1,12.5816,65.84)">
                <path d="M0,-1.313C0,-2.048 0.265,-2.463 1.034,-2.516C1.088,-2.52 1.138,-2.526 1.198,-2.526C1.695,-2.526 2,-2.385 2.185,-2.138C2.335,-1.936 2.411,-1.667 2.411,-1.313L2.411,2.935C2.411,3.707 2.1,4.132 1.198,4.132C0.296,4.132 0,3.707 0,2.935L0,-1.313ZM0.804,5.51C1.243,5.51 1.645,5.395 1.969,5.209C2.238,5.055 2.456,4.854 2.575,4.608L2.758,5.096L2.871,5.396L3.79,5.396L3.79,-6.823L2.411,-6.823L2.411,-4.134C2.411,-3.626 2.559,-3.248 2.575,-2.986C2.423,-3.299 2.112,-3.546 1.729,-3.709C1.452,-3.826 1.141,-3.904 0.804,-3.904C-0.623,-3.904 -1.377,-3.084 -1.377,-1.428L-1.377,3.05C-1.377,3.12 -1.368,3.179 -1.365,3.246C-1.361,3.339 -1.357,3.433 -1.349,3.52C-1.337,3.632 -1.318,3.736 -1.299,3.837C-1.243,4.126 -1.158,4.382 -1.036,4.595C-0.685,5.207 -0.067,5.51 0.804,5.51" style="fill:rgb(35,31,32);fill-rule:nonzero;"/>
            </g>
            <g transform="matrix(1,0,0,1,20.4,69.9163)">
                <path d="M0,-6.547C0.124,-6.573 0.243,-6.603 0.402,-6.603C1.304,-6.603 1.6,-6.177 1.6,-5.389L1.6,-3.962L-0.812,-3.962L-0.812,-5.389C-0.812,-6.038 -0.579,-6.425 0,-6.547M-0.812,-2.585L2.977,-2.585L2.977,-5.389C2.977,-6.899 2.207,-7.8 0.818,-7.95C0.683,-7.964 0.549,-7.981 0.402,-7.981C0.019,-7.981 -0.321,-7.925 -0.625,-7.828C-1.139,-7.663 -1.538,-7.367 -1.802,-6.943C-2.057,-6.535 -2.19,-6.014 -2.19,-5.389L-2.19,-1.141C-2.19,-0.517 -2.057,0.002 -1.802,0.407C-1.788,0.43 -1.768,0.447 -1.753,0.469C-1.573,0.733 -1.337,0.944 -1.051,1.1C-0.898,1.184 -0.729,1.25 -0.548,1.302C-0.263,1.383 0.049,1.434 0.402,1.434C0.529,1.434 0.643,1.418 0.761,1.408C0.941,1.391 1.11,1.363 1.27,1.322C2.37,1.04 2.977,0.195 2.977,-1.141L1.6,-1.141C1.6,-0.371 1.304,0.056 0.402,0.056C0.32,0.056 0.268,0.034 0.195,0.027C-0.062,0.002 -0.264,-0.064 -0.412,-0.173C-0.58,-0.296 -0.699,-0.459 -0.755,-0.68C-0.79,-0.818 -0.812,-0.968 -0.812,-1.141L-0.812,-2.585Z" style="fill:rgb(35,31,32);fill-rule:nonzero;"/>
            </g>
            <g transform="matrix(1,0,0,1,25.8258,66.7531)">
                <path d="M0,-3.374L0,4.482L1.346,4.482L1.346,-3.374L3.084,-3.374L3.428,-4.702L1.346,-4.702L1.346,-5.522C1.347,-5.634 1.371,-5.714 1.386,-5.806C1.444,-6.166 1.592,-6.392 1.795,-6.509C2.289,-6.793 3.05,-6.515 3.363,-6.31L3.674,-7.491C3.312,-7.645 2.918,-7.733 2.542,-7.789C2.356,-7.816 2.164,-7.852 2.002,-7.852C1.675,-7.856 1.381,-7.803 1.121,-7.703C0.434,-7.436 0.012,-6.8 0.004,-5.787C0.004,-5.764 0,-5.744 0,-5.72L0,-4.702L-1.049,-4.702L-1.049,-3.374L0,-3.374Z" style="fill:rgb(35,31,32);fill-rule:nonzero;"/>
            </g>
            <g transform="matrix(1,0,0,1,32.4137,61.9152)">
                <path d="M0,9.747L0,-0.39C-0.026,-1.151 0.375,-1.495 0.975,-1.597C1.111,-1.621 1.255,-1.636 1.41,-1.636L1.41,-3.014C1.023,-3.014 0.673,-2.965 0.356,-2.877C-0.321,-2.691 -0.823,-2.3 -1.107,-1.697C-1.278,-1.336 -1.378,-0.908 -1.378,-0.39L-1.378,9.747C-1.378,10.322 -1.255,10.788 -1.046,11.169C-1.042,11.177 -1.039,11.185 -1.035,11.192C-0.966,11.315 -0.887,11.428 -0.798,11.531C-0.315,12.09 0.442,12.371 1.41,12.371L1.41,10.993C0.685,10.993 0.135,10.757 0.022,10.087C0.004,9.984 -0.004,9.872 0,9.747Z" style="fill:rgb(35,31,32);fill-rule:nonzero;"/>
            </g>
            <g transform="matrix(1,0,0,1,36.776,67.0537)">
                <path d="M0,-3.74C0.084,-3.74 0.14,-3.718 0.214,-3.71C0.933,-3.638 1.214,-3.24 1.214,-2.527L1.214,1.721C1.214,2.34 0.996,2.723 0.452,2.856C0.317,2.889 0.178,2.919 0,2.919C-0.163,2.919 -0.3,2.9 -0.426,2.872C-0.993,2.748 -1.198,2.353 -1.198,1.721L-1.198,-2.527C-1.198,-3.314 -0.902,-3.74 0,-3.74M-1.098,4.207C-0.883,4.26 -0.654,4.297 -0.395,4.297C-0.389,4.297 -0.384,4.295 -0.379,4.295C0.418,4.29 1.117,3.932 1.378,3.394L1.425,3.521L1.601,3.99L1.673,4.182L2.591,4.182L2.591,-8.037L1.214,-8.037L1.214,-5.347C1.214,-4.84 1.36,-4.462 1.378,-4.199C1.268,-4.427 1.066,-4.615 0.825,-4.769C0.507,-4.971 0.107,-5.1 -0.335,-5.111C-0.356,-5.112 -0.374,-5.118 -0.395,-5.118C-1.821,-5.118 -2.575,-4.298 -2.575,-2.641L-2.575,1.843C-2.573,3.193 -2.061,3.967 -1.098,4.207" style="fill:rgb(35,31,32);fill-rule:nonzero;"/>
            </g>
            <g transform="matrix(1,0,0,1,43.7984,69.9727)">
                <path d="M0,-6.659C0.902,-6.659 1.198,-6.233 1.198,-5.446L1.198,-4.018L-1.214,-4.018L-1.214,-5.446C-1.214,-6.233 -0.902,-6.659 0,-6.659M-1.214,-2.641L2.575,-2.641L2.575,-5.446C2.575,-5.804 2.524,-6.121 2.44,-6.409C2.135,-7.455 1.299,-8.037 0,-8.037C-0.229,-8.037 -0.441,-8.015 -0.642,-7.98C-1.894,-7.761 -2.591,-6.873 -2.591,-5.446L-2.591,-1.198C-2.591,-0.578 -2.46,-0.063 -2.211,0.341C-2.099,0.52 -1.956,0.67 -1.797,0.804C-1.781,0.818 -1.764,0.831 -1.748,0.843C-1.555,0.998 -1.338,1.127 -1.083,1.214C-0.952,1.258 -0.809,1.29 -0.662,1.316C-0.528,1.341 -0.385,1.351 -0.239,1.36C-0.158,1.365 -0.084,1.378 0,1.378C1.657,1.378 2.575,0.459 2.575,-1.198L1.198,-1.198C1.198,-1.186 1.196,-1.176 1.196,-1.164C1.189,-0.613 1.025,-0.243 0.583,-0.086C0.451,-0.039 0.288,-0.015 0.102,-0.007C0.067,-0.006 0.037,0 0,0C-0.523,0 -0.832,-0.159 -1.012,-0.431C-1.142,-0.627 -1.214,-0.874 -1.214,-1.198L-1.214,-2.641Z" style="fill:rgb(35,31,32);fill-rule:nonzero;"/>
            </g>
            <g transform="matrix(1,0,0,1,48.4698,71.235)">
                <path d="M0.708,-9.184L-0.784,-9.184L-0.583,-8.173L0.231,-4.063L0.838,-0.999L0.943,-0.471L1.037,0L3.104,0L3.148,-0.224L4.017,-4.609L4.373,-6.401L4.567,-7.383L4.924,-9.184L3.431,-9.184L2.651,-4.513L2.407,-3.045L2.07,-1.033L1.887,-2.132L1.444,-4.781L0.708,-9.184Z" style="fill:rgb(35,31,32);fill-rule:nonzero;"/>
            </g>
            <g transform="matrix(1,0,0,1,55.1563,65.7691)">
                <path d="M0,-4.243L0,5.893C0.033,6.827 -0.574,7.139 -1.411,7.139L-1.411,8.518C0.296,8.518 1.378,7.681 1.378,5.893L1.378,-4.243C1.378,-5.244 1.029,-5.936 0.432,-6.361C0.116,-6.585 -0.267,-6.737 -0.714,-6.809C-0.934,-6.845 -1.164,-6.868 -1.411,-6.868L-1.411,-5.489C-0.931,-5.489 -0.533,-5.382 -0.281,-5.119C-0.094,-4.922 0.014,-4.642 0,-4.243Z" style="fill:rgb(35,31,32);fill-rule:nonzero;"/>
            </g>
            <g transform="matrix(1,0,0,1,59.7662,68.759)">
                <path d="M0,-4.232C0,-5.02 0.312,-5.445 1.214,-5.445C2.117,-5.445 2.413,-5.02 2.413,-4.232L2.413,-2.805L0,-2.805L0,-4.232ZM-1.377,-4.232L-1.377,0.016C-1.377,1.672 -0.442,2.591 1.214,2.591C2.871,2.591 3.79,1.672 3.79,0.016L2.413,0.016C2.413,0.787 2.117,1.213 1.214,1.213C0.312,1.213 0,0.787 0,0.016L0,-1.428L3.79,-1.428L3.79,-4.232C3.79,-5.889 2.871,-6.823 1.214,-6.823C-0.442,-6.823 -1.377,-5.889 -1.377,-4.232" style="fill:rgb(35,31,32);fill-rule:nonzero;"/>
            </g>
            <g transform="matrix(1,0,0,1,66.6622,71.3505)">
                <path d="M0,-9.3L-1.377,-9.3L-1.377,-2.46C-1.377,-0.804 -0.623,0 0.804,0C1.608,0 2.313,-0.362 2.576,-0.903L2.871,-0.115L3.789,-0.115L3.789,-9.3L2.412,-9.3L2.412,-2.575C2.412,-1.787 2.1,-1.378 1.197,-1.378C0.296,-1.378 0,-1.787 0,-2.575L0,-9.3Z" style="fill:rgb(35,31,32);fill-rule:nonzero;"/>
            </g>
        </g>
    </g>
</svg>
